<svg xmlns="http://www.w3.org/2000/svg" xmlns:xlink="http://www.w3.org/1999/xlink" width="250" zoomAndPan="magnify" viewBox="0 0 300 45" height="80" preserveAspectRatio="xMidYMid meet" version="1.0"><defs><g/><clipPath id="614f5a3cce"><path d="M 2 0 L 84 0 L 84 58 L 2 58 Z M 2 0 " clip-rule="nonzero"/></clipPath><clipPath id="0e749aaabc"><path d="M 5.285156 -4.375 L 103.257812 2.988281 L 98.761719 62.820312 L 0.789062 55.457031 Z M 5.285156 -4.375 " clip-rule="nonzero"/></clipPath><clipPath id="2462edc08d"><path d="M 98.621094 62.515625 L 0.644531 55.152344 L 5.144531 -4.679688 L 103.117188 2.683594 Z M 98.621094 62.515625 " clip-rule="nonzero"/></clipPath><clipPath id="d3a3f7f25b"><path d="M 19 0 L 102 0 L 102 58 L 19 58 Z M 19 0 " clip-rule="nonzero"/></clipPath><clipPath id="44f71528e9"><path d="M 5.285156 -4.375 L 103.257812 2.988281 L 98.761719 62.820312 L 0.789062 55.457031 Z M 5.285156 -4.375 " clip-rule="nonzero"/></clipPath><clipPath id="1328b9ac53"><path d="M 98.621094 62.515625 L 0.644531 55.152344 L 5.144531 -4.679688 L 103.117188 2.683594 Z M 98.621094 62.515625 " clip-rule="nonzero"/></clipPath></defs><g clip-path="url(#614f5a3cce)"><g clip-path="url(#0e749aaabc)"><g clip-path="url(#2462edc08d)"><path fill="#2b70e4" d="M 28.894531 57.246094 C 38.304688 57.953125 45.101562 53.785156 51.058594 48.339844 L 51.71875 47.722656 C 53.453125 46.097656 55.085938 44.410156 56.589844 42.824219 L 57.125 42.265625 C 57.363281 42.011719 57.601562 41.761719 57.839844 41.507812 C 65.28125 33.636719 72.3125 26.199219 83.804688 26.269531 L 83.851562 19.152344 C 69.285156 19.066406 60.46875 28.386719 52.691406 36.613281 C 45.453125 44.269531 39.199219 50.882812 29.425781 50.148438 C 17.753906 49.273438 8.972656 39.03125 9.851562 27.316406 C 10.730469 15.605469 20.945312 6.792969 32.621094 7.667969 C 36.980469 7.996094 41.074219 9.683594 44.390625 12.375 C 46 10.679688 47.664062 8.960938 49.417969 7.320312 C 44.902344 3.457031 39.21875 1.027344 33.152344 0.574219 C 17.578125 -0.597656 3.953125 11.160156 2.777344 26.785156 C 1.601562 42.410156 13.320312 56.074219 28.894531 57.246094 " fill-opacity="1" fill-rule="nonzero"/></g></g></g><g clip-path="url(#d3a3f7f25b)"><g clip-path="url(#44f71528e9)"><g clip-path="url(#1328b9ac53)"><path fill="#253439" d="M 19.910156 38.707031 C 34.476562 38.792969 43.289062 29.472656 51.066406 21.246094 C 58.308594 13.589844 64.558594 6.976562 74.332031 7.710938 C 86.007812 8.589844 94.789062 18.832031 93.910156 30.542969 C 93.027344 42.253906 82.816406 51.066406 71.140625 50.191406 C 66.78125 49.863281 62.683594 48.175781 59.371094 45.484375 C 57.757812 47.179688 56.09375 48.898438 54.339844 50.539062 C 58.855469 54.402344 64.539062 56.832031 70.605469 57.289062 C 86.183594 58.457031 99.808594 46.699219 100.984375 31.074219 C 102.15625 15.449219 90.441406 1.785156 74.867188 0.613281 C 61.734375 -0.371094 53.695312 8.128906 45.921875 16.351562 C 38.476562 24.222656 31.445312 31.660156 19.953125 31.589844 L 19.910156 38.707031 " fill-opacity="1" fill-rule="nonzero"/></g></g></g><g fill="#2b70e4" fill-opacity="1"><g transform="translate(104.08605, 37.776354)"><g><path d="M 30.65625 -2.890625 C 29.769531 -2.160156 28.363281 -1.429688 26.4375 -0.703125 C 24.507812 0.015625 22.410156 0.375 20.140625 0.375 C 16.503906 0.375 13.34375 -0.410156 10.65625 -1.984375 C 7.96875 -3.566406 5.914062 -5.691406 4.5 -8.359375 C 3.082031 -11.023438 2.375 -13.957031 2.375 -17.15625 C 2.375 -20.65625 3.082031 -23.78125 4.5 -26.53125 C 5.914062 -29.28125 7.90625 -31.421875 10.46875 -32.953125 C 13.03125 -34.484375 15.984375 -35.25 19.328125 -35.25 C 21.441406 -35.25 23.398438 -34.960938 25.203125 -34.390625 C 27.003906 -33.828125 28.582031 -33.117188 29.9375 -32.265625 L 27.234375 -25.765625 C 24.742188 -27.660156 22.1875 -28.609375 19.5625 -28.609375 C 17.789062 -28.609375 16.128906 -28.117188 14.578125 -27.140625 C 13.035156 -26.160156 11.804688 -24.828125 10.890625 -23.140625 C 9.972656 -21.453125 9.515625 -19.582031 9.515625 -17.53125 C 9.515625 -15.289062 9.941406 -13.320312 10.796875 -11.625 C 11.648438 -9.9375 12.863281 -8.617188 14.4375 -7.671875 C 16.019531 -6.722656 17.875 -6.25 20 -6.25 C 21.695312 -6.25 23.222656 -6.523438 24.578125 -7.078125 C 25.941406 -7.628906 27.019531 -8.285156 27.8125 -9.046875 Z M 30.65625 -2.890625 "/></g></g></g><g fill="#2b70e4" fill-opacity="1"><g transform="translate(137.097158, 37.776354)"><g><path d="M 23.3125 0 L 15.96875 -11.078125 L 11.375 -11.078125 L 11.375 0 L 4.5 0 L 4.5 -34.875 L 15.0625 -34.875 C 19.394531 -34.875 22.75 -33.820312 25.125 -31.71875 C 27.507812 -29.613281 28.703125 -26.75 28.703125 -23.125 C 28.703125 -20.96875 28.253906 -18.953125 27.359375 -17.078125 C 26.460938 -15.203125 25.082031 -13.726562 23.21875 -12.65625 L 31.3125 0 Z M 11.375 -17.71875 L 16.25 -17.71875 C 18.113281 -17.71875 19.472656 -18.257812 20.328125 -19.34375 C 21.179688 -20.4375 21.609375 -21.613281 21.609375 -22.875 C 21.609375 -24.144531 21.242188 -25.351562 20.515625 -26.5 C 19.785156 -27.65625 18.378906 -28.234375 16.296875 -28.234375 L 11.375 -28.234375 Z M 11.375 -17.71875 "/></g></g></g><g fill="#2b70e4" fill-opacity="1"><g transform="translate(169.587285, 37.776354)"><g><path d="M 28.28125 -34.875 L 28.28125 -28.234375 L 11.375 -28.234375 L 11.375 -20.796875 L 26.34375 -20.796875 L 26.34375 -14.171875 L 11.375 -14.171875 L 11.375 -6.625 L 28.953125 -6.625 L 28.953125 0 L 4.5 0 L 4.5 -34.875 Z M 28.28125 -34.875 "/></g></g></g><g fill="#2b70e4" fill-opacity="1"><g transform="translate(201.130187, 37.776354)"><g><path d="M 4.5 -34.875 L 14.921875 -34.875 C 19.378906 -34.875 23.039062 -34.007812 25.90625 -32.28125 C 28.78125 -30.5625 30.875 -28.335938 32.1875 -25.609375 C 33.5 -22.878906 34.15625 -19.945312 34.15625 -16.8125 C 34.15625 -13.46875 33.363281 -10.515625 31.78125 -7.953125 C 30.207031 -5.398438 28.082031 -3.4375 25.40625 -2.0625 C 22.738281 -0.6875 19.8125 0 16.625 0 L 4.5 0 Z M 15.4375 -6.625 C 19.007812 -6.625 21.835938 -7.539062 23.921875 -9.375 C 26.003906 -11.207031 27.046875 -13.847656 27.046875 -17.296875 C 27.046875 -20.066406 26.46875 -22.273438 25.3125 -23.921875 C 24.164062 -25.566406 22.828125 -26.703125 21.296875 -27.328125 C 19.765625 -27.960938 18.316406 -28.28125 16.953125 -28.28125 L 11.375 -28.28125 L 11.375 -6.625 Z M 15.4375 -6.625 "/></g></g></g><g fill="#2b70e4" fill-opacity="1"><g transform="translate(237.646057, 37.776354)"><g><path d="M 11.375 -34.875 L 11.375 0 L 4.5 0 L 4.5 -34.875 Z M 11.375 -34.875 "/></g></g></g><g fill="#2b70e4" fill-opacity="1"><g transform="translate(253.512233, 37.776354)"><g><path d="M 25.625 -34.875 L 25.625 -28.234375 L 17.15625 -28.234375 L 17.15625 0 L 10.28125 0 L 10.28125 -28.234375 L 2.125 -28.234375 L 2.125 -34.875 Z M 25.625 -34.875 "/></g></g></g><g fill="#242424" fill-opacity="1"><g transform="translate(127.6131, 59.906778)"><g><path d="M 14.140625 -17.4375 L 14.140625 -14.125 L 5.6875 -14.125 L 5.6875 -10.40625 L 13.171875 -10.40625 L 13.171875 -7.078125 L 5.6875 -7.078125 L 5.6875 -3.3125 L 14.46875 -3.3125 L 14.46875 0 L 2.25 0 L 2.25 -17.4375 Z M 14.140625 -17.4375 "/></g></g></g><g fill="#242424" fill-opacity="1"><g transform="translate(148.123558, 59.906778)"><g><path d="M 12.15625 0 L 8.25 -6.015625 L 4.859375 0 L 0.59375 0 L 6.296875 -9 L 0.828125 -17.4375 L 5.21875 -17.4375 L 8.984375 -11.65625 L 12.25 -17.4375 L 16.421875 -17.4375 L 10.875 -8.765625 L 16.578125 0 Z M 12.15625 0 "/></g></g></g><g fill="#242424" fill-opacity="1"><g transform="translate(170.031204, 59.906778)"><g><path d="M 7.53125 -17.4375 C 9.664062 -17.4375 11.316406 -16.910156 12.484375 -15.859375 C 13.648438 -14.804688 14.234375 -13.375 14.234375 -11.5625 C 14.234375 -10.519531 14.03125 -9.539062 13.625 -8.625 C 13.226562 -7.71875 12.570312 -6.972656 11.65625 -6.390625 C 10.75 -5.804688 9.582031 -5.515625 8.15625 -5.515625 L 5.6875 -5.515625 L 5.6875 0 L 2.25 0 L 2.25 -17.4375 Z M 8.125 -8.859375 C 8.769531 -8.859375 9.289062 -9.003906 9.6875 -9.296875 C 10.082031 -9.585938 10.363281 -9.929688 10.53125 -10.328125 C 10.707031 -10.722656 10.796875 -11.101562 10.796875 -11.46875 C 10.796875 -12.082031 10.613281 -12.675781 10.25 -13.25 C 9.894531 -13.832031 9.195312 -14.125 8.15625 -14.125 L 5.6875 -14.125 L 5.6875 -8.859375 Z M 8.125 -8.859375 "/></g></g></g><g fill="#242424" fill-opacity="1"><g transform="translate(189.831251, 59.906778)"><g><path d="M 11.65625 0 L 7.984375 -5.546875 L 5.6875 -5.546875 L 5.6875 0 L 2.25 0 L 2.25 -17.4375 L 7.53125 -17.4375 C 9.695312 -17.4375 11.375 -16.910156 12.5625 -15.859375 C 13.757812 -14.804688 14.359375 -13.375 14.359375 -11.5625 C 14.359375 -10.488281 14.128906 -9.476562 13.671875 -8.53125 C 13.222656 -7.59375 12.535156 -6.859375 11.609375 -6.328125 L 15.65625 0 Z M 5.6875 -8.859375 L 8.125 -8.859375 C 9.050781 -8.859375 9.726562 -9.128906 10.15625 -9.671875 C 10.582031 -10.222656 10.796875 -10.8125 10.796875 -11.4375 C 10.796875 -12.070312 10.613281 -12.675781 10.25 -13.25 C 9.894531 -13.832031 9.195312 -14.125 8.15625 -14.125 L 5.6875 -14.125 Z M 5.6875 -8.859375 "/></g></g></g><g fill="#242424" fill-opacity="1"><g transform="translate(210.815348, 59.906778)"><g><path d="M 14.140625 -17.4375 L 14.140625 -14.125 L 5.6875 -14.125 L 5.6875 -10.40625 L 13.171875 -10.40625 L 13.171875 -7.078125 L 5.6875 -7.078125 L 5.6875 -3.3125 L 14.46875 -3.3125 L 14.46875 0 L 2.25 0 L 2.25 -17.4375 Z M 14.140625 -17.4375 "/></g></g></g><g fill="#242424" fill-opacity="1"><g transform="translate(231.325809, 59.906778)"><g><path d="M 11.5625 -13.21875 C 10.039062 -14.050781 8.722656 -14.46875 7.609375 -14.46875 C 6.847656 -14.46875 6.257812 -14.316406 5.84375 -14.015625 C 5.425781 -13.722656 5.21875 -13.273438 5.21875 -12.671875 C 5.21875 -12.117188 5.519531 -11.632812 6.125 -11.21875 C 6.726562 -10.800781 7.535156 -10.398438 8.546875 -10.015625 C 9.367188 -9.710938 10.070312 -9.367188 10.65625 -8.984375 C 11.238281 -8.597656 11.722656 -8.066406 12.109375 -7.390625 C 12.503906 -6.710938 12.703125 -5.851562 12.703125 -4.8125 C 12.703125 -3.90625 12.46875 -3.066406 12 -2.296875 C 11.53125 -1.535156 10.84375 -0.929688 9.9375 -0.484375 C 9.039062 -0.0351562 7.972656 0.1875 6.734375 0.1875 C 5.679688 0.1875 4.640625 0.0351562 3.609375 -0.265625 C 2.585938 -0.578125 1.640625 -1.050781 0.765625 -1.6875 L 2.28125 -4.359375 C 2.875 -3.910156 3.554688 -3.546875 4.328125 -3.265625 C 5.109375 -2.984375 5.804688 -2.84375 6.421875 -2.84375 C 7.148438 -2.84375 7.78125 -2.992188 8.3125 -3.296875 C 8.851562 -3.609375 9.125 -4.113281 9.125 -4.8125 C 9.125 -5.707031 8.273438 -6.488281 6.578125 -7.15625 C 5.585938 -7.550781 4.757812 -7.925781 4.09375 -8.28125 C 3.4375 -8.644531 2.863281 -9.164062 2.375 -9.84375 C 1.894531 -10.53125 1.65625 -11.382812 1.65625 -12.40625 C 1.65625 -13.90625 2.148438 -15.113281 3.140625 -16.03125 C 4.128906 -16.945312 5.441406 -17.445312 7.078125 -17.53125 C 8.378906 -17.53125 9.460938 -17.382812 10.328125 -17.09375 C 11.191406 -16.800781 12.035156 -16.382812 12.859375 -15.84375 Z M 11.5625 -13.21875 "/></g></g></g><g fill="#242424" fill-opacity="1"><g transform="translate(249.870778, 59.906778)"><g><path d="M 11.5625 -13.21875 C 10.039062 -14.050781 8.722656 -14.46875 7.609375 -14.46875 C 6.847656 -14.46875 6.257812 -14.316406 5.84375 -14.015625 C 5.425781 -13.722656 5.21875 -13.273438 5.21875 -12.671875 C 5.21875 -12.117188 5.519531 -11.632812 6.125 -11.21875 C 6.726562 -10.800781 7.535156 -10.398438 8.546875 -10.015625 C 9.367188 -9.710938 10.070312 -9.367188 10.65625 -8.984375 C 11.238281 -8.597656 11.722656 -8.066406 12.109375 -7.390625 C 12.503906 -6.710938 12.703125 -5.851562 12.703125 -4.8125 C 12.703125 -3.90625 12.46875 -3.066406 12 -2.296875 C 11.53125 -1.535156 10.84375 -0.929688 9.9375 -0.484375 C 9.039062 -0.0351562 7.972656 0.1875 6.734375 0.1875 C 5.679688 0.1875 4.640625 0.0351562 3.609375 -0.265625 C 2.585938 -0.578125 1.640625 -1.050781 0.765625 -1.6875 L 2.28125 -4.359375 C 2.875 -3.910156 3.554688 -3.546875 4.328125 -3.265625 C 5.109375 -2.984375 5.804688 -2.84375 6.421875 -2.84375 C 7.148438 -2.84375 7.78125 -2.992188 8.3125 -3.296875 C 8.851562 -3.609375 9.125 -4.113281 9.125 -4.8125 C 9.125 -5.707031 8.273438 -6.488281 6.578125 -7.15625 C 5.585938 -7.550781 4.757812 -7.925781 4.09375 -8.28125 C 3.4375 -8.644531 2.863281 -9.164062 2.375 -9.84375 C 1.894531 -10.53125 1.65625 -11.382812 1.65625 -12.40625 C 1.65625 -13.90625 2.148438 -15.113281 3.140625 -16.03125 C 4.128906 -16.945312 5.441406 -17.445312 7.078125 -17.53125 C 8.378906 -17.53125 9.460938 -17.382812 10.328125 -17.09375 C 11.191406 -16.800781 12.035156 -16.382812 12.859375 -15.84375 Z M 11.5625 -13.21875 "/></g></g></g></svg>
